<svg xmlns="http://www.w3.org/2000/svg" viewBox="0 0 128 128" width="128" height="128" role="img">
  <rect x="4" y="4" width="120" height="120" rx="30" fill="#69db7c"/>
  <rect x="4" y="4" width="120" height="120" rx="30" fill="#fff" opacity=".18"/>
  
    <g fill="#fff">
      <g transform="translate(38 40)">
        <circle cx="0" cy="-13" r="7"/><circle cx="12" cy="-4" r="7"/><circle cx="8" cy="11" r="7"/>
        <circle cx="-8" cy="11" r="7"/><circle cx="-12" cy="-4" r="7"/>
      </g>
      <g transform="translate(90 40)">
        <circle cx="0" cy="0" r="12"/>
        <g stroke="#fff" stroke-width="4.5" stroke-linecap="round">
          <line x1="0" y1="-21" x2="0" y2="-17"/><line x1="0" y1="17" x2="0" y2="21"/>
          <line x1="-21" y1="0" x2="-17" y2="0"/><line x1="17" y1="0" x2="21" y2="0"/>
          <line x1="-15" y1="-15" x2="-12" y2="-12"/><line x1="12" y1="12" x2="15" y2="15"/>
          <line x1="15" y1="-15" x2="12" y2="-12"/><line x1="-12" y1="12" x2="-15" y2="15"/>
        </g>
      </g>
      <path d="M38 74c16 0 24 10 24 22-16 2-26-6-24-22z"/>
      <path d="M38 96c6-8 14-14 22-17" fill="none" stroke="#69db7c" stroke-width="3" stroke-linecap="round"/>
      <g transform="translate(90 90)" stroke="#fff" stroke-width="5" stroke-linecap="round">
        <line x1="0" y1="-18" x2="0" y2="18"/>
        <line x1="-15.6" y1="-9" x2="15.6" y2="9"/>
        <line x1="-15.6" y1="9" x2="15.6" y2="-9"/>
      </g>
    </g>
</svg>
